<svg width="13" height="17" viewBox="0 0 13 17" fill="none" xmlns="http://www.w3.org/2000/svg">
<g clip-path="url(#clip0_4:494)">
<path d="M12.8219 0C13 0.173469 13 0.346939 13 0.520408C13 5.89796 13 11.2755 13 16.6531C13 16.8265 13 17 12.8219 17.1735C12.6438 17.1735 12.4658 17.1735 12.2877 17C11.0411 15.6122 9.61644 14.2245 8.19178 13.0102C7.65753 12.4898 7.12329 11.9694 6.58904 11.6224C6.41096 11.449 6.41096 11.449 6.41096 11.6224C5.34247 12.4898 4.45205 13.5306 3.38356 14.398C2.49315 15.2653 1.60274 16.1327 0.712329 17C0.534247 17 0.356164 17.1735 0.178082 17C0 17 0 16.8265 0 16.6531C0 11.2755 0 5.89796 0 0.520408C0 0.346939 0 0.173469 0.178082 0C4.45205 0 8.72603 0 12.8219 0ZM0.712329 15.7857C0.890411 15.7857 0.890411 15.7857 0.712329 15.7857C1.60274 15.0918 2.31507 14.398 3.0274 13.7041C4.09589 12.6633 5.16438 11.6224 6.23288 10.7551C6.41096 10.5816 6.58904 10.5816 6.94521 10.7551C7.12329 10.9286 7.30137 11.102 7.47945 11.2755C8.90411 12.6633 10.5068 14.051 11.9315 15.4388C11.9315 15.6122 12.1096 15.6122 12.2877 15.7857C12.2877 15.6122 12.2877 15.6122 12.2877 15.6122C12.2877 10.7551 12.2877 5.89796 12.2877 1.04082C12.2877 0.867347 12.2877 0.867347 12.1096 0.867347C8.36986 0.867347 4.80822 0.867347 1.06849 0.867347C0.890411 0.867347 0.890411 0.867347 0.890411 1.04082C0.890411 5.89796 0.890411 10.7551 0.890411 15.6122C0.712329 15.6122 0.712329 15.7857 0.712329 15.7857Z" fill="black"/>
</g>
<defs>
<clipPath id="clip0_4:494">
<rect width="13" height="17" fill="white"/>
</clipPath>
</defs>
</svg>
