<svg width="20" height="22" viewBox="0 0 20 22" fill="none" xmlns="http://www.w3.org/2000/svg">
<path d="M9.68939 21.7645C9.16564 21.6367 8.64189 21.3813 8.38002 20.998C7.85627 20.4871 7.59439 19.7207 7.72533 18.9542C7.72533 18.8265 7.72533 18.6987 7.46345 18.6987C5.76126 18.6987 4.05907 18.6987 2.35688 18.6987C1.0475 18.6987 0 17.6768 0 16.2717C0 15.1221 1.0475 14.2279 2.22594 14.1002C2.74969 14.1002 2.88063 13.8447 2.88063 13.3337C2.88063 12.0564 2.88063 10.779 2.88063 9.50159C2.88063 7.45777 3.66626 5.79718 5.10657 4.39205C5.8922 3.8811 6.67783 3.37015 7.72533 3.11467C7.85627 2.98693 7.85627 2.98693 7.85627 2.85919C7.59439 1.58181 8.38002 0.304426 9.55846 0.0489498C10.7369 -0.206527 12.0463 0.559903 12.3081 1.83729C12.4391 2.2205 12.4391 2.47598 12.3081 2.85919C12.3081 2.98693 12.3081 3.11467 12.4391 3.11467C14.1413 3.75336 15.4507 4.77527 16.3672 6.43587C16.891 7.33004 17.1528 8.2242 17.1528 9.24611C17.2838 10.6512 17.1528 12.1841 17.1528 13.5892C17.1528 14.1002 17.2838 14.2279 17.8075 14.3556C18.7241 14.3556 19.3788 14.8666 19.7716 15.633C20.1644 16.3995 20.0335 17.2936 19.5097 17.9323C19.1169 18.571 18.4622 18.8265 17.6766 18.8265C15.9744 18.8265 14.2722 18.8265 12.57 18.8265C12.4391 18.8265 12.3081 18.8265 12.3081 19.082C12.57 20.3593 11.6535 21.509 10.475 21.7645H10.3441C10.2131 21.7645 9.95127 21.7645 9.68939 21.7645ZM10.0822 17.4214C12.57 17.4214 14.9269 17.4214 17.4147 17.4214C17.5457 17.4214 17.6766 17.4214 17.8075 17.4214C18.2003 17.4214 18.5932 17.2936 18.7241 16.7827C18.986 16.144 18.5932 15.5053 17.8075 15.5053C16.76 15.3776 15.9744 14.6111 15.9744 13.5892C15.9744 12.3118 15.9744 11.0344 15.9744 9.75706C15.9744 8.73516 15.7125 7.71325 15.1888 6.81908C13.7485 4.13658 10.0822 3.11467 7.33251 4.64753C5.23751 5.79717 4.32095 7.58551 4.19001 9.75706C4.19001 11.0344 4.19001 12.3118 4.19001 13.717C4.19001 14.6111 3.53532 15.2498 2.74969 15.5053C2.48782 15.5053 2.35688 15.5053 2.095 15.633C1.70219 15.633 1.30938 16.0162 1.30938 16.5272C1.30938 17.0381 1.70219 17.4214 2.095 17.4214C2.22594 17.4214 2.35688 17.4214 2.48782 17.4214C5.10657 17.4214 7.59439 17.4214 10.0822 17.4214ZM10.0822 18.8265C9.82033 18.8265 9.55846 18.8265 9.29658 18.8265C9.16564 18.8265 9.16564 18.8265 9.03471 18.9542C8.77283 19.3374 8.90377 19.9761 9.29658 20.2316C9.68939 20.6148 10.3441 20.6148 10.7369 20.2316C11.1297 19.9761 11.2606 19.3374 11.1297 18.9542C11.1297 18.8265 10.9988 18.8265 10.8678 18.8265C10.606 18.8265 10.3441 18.8265 10.0822 18.8265ZM10.0822 1.32633C9.42752 1.32633 9.03471 1.96502 9.16564 2.47598C9.16564 2.60372 9.29658 2.73145 9.42752 2.73145C9.82033 2.73145 10.2131 2.73145 10.7369 2.73145C10.8678 2.73145 10.9988 2.73145 10.9988 2.47598C11.1297 1.96502 10.7369 1.32633 10.0822 1.32633Z" fill="#595959"/>
<circle cx="16" cy="7" r="4" fill="#1CA722"/>
</svg>
